<svg width="27" height="34" viewBox="0 0 27 34" fill="none" xmlns="http://www.w3.org/2000/svg">
<mask id="path-1-inside-1" fill="white">
<path d="M26.5785 10.0936C26.2973 9.38537 25.96 8.82482 25.5661 8.41158L18.9847 1.50503C18.5908 1.09218 18.0567 0.737863 17.3817 0.442547C16.7069 0.147542 16.0881 0 15.5259 0H2.02491C1.46252 0 0.984345 0.206465 0.590622 0.619706C0.196825 1.03271 0 1.53449 0 2.12489V31.875C0 32.4656 0.196825 32.9674 0.590622 33.3805C0.984419 33.7933 1.46252 34 2.02499 34H24.9755C25.5379 34 26.0157 33.7933 26.4094 33.3805C26.803 32.9671 27 32.4656 27 31.875V12.0416C27.0002 11.4513 26.8596 10.8019 26.5785 10.0936ZM16.2004 3.01022C16.608 3.15776 16.8962 3.32027 17.0651 3.49712L23.6677 10.4258C23.8361 10.603 23.9909 10.9054 24.1314 11.3333H16.2004V3.01022ZM24.3004 31.1668H2.69991V2.83337H13.5V12.0418C13.5 12.6321 13.6967 13.1338 14.0905 13.547C14.4844 13.96 14.9623 14.1668 15.5251 14.1668H24.3004V31.1668Z"/>
</mask>
<path d="M26.5785 10.0936C26.2973 9.38537 25.96 8.82482 25.5661 8.41158L18.9847 1.50503C18.5908 1.09218 18.0567 0.737863 17.3817 0.442547C16.7069 0.147542 16.0881 0 15.5259 0H2.02491C1.46252 0 0.984345 0.206465 0.590622 0.619706C0.196825 1.03271 0 1.53449 0 2.12489V31.875C0 32.4656 0.196825 32.9674 0.590622 33.3805C0.984419 33.7933 1.46252 34 2.02499 34H24.9755C25.5379 34 26.0157 33.7933 26.4094 33.3805C26.803 32.9671 27 32.4656 27 31.875V12.0416C27.0002 11.4513 26.8596 10.8019 26.5785 10.0936ZM16.2004 3.01022C16.608 3.15776 16.8962 3.32027 17.0651 3.49712L23.6677 10.4258C23.8361 10.603 23.9909 10.9054 24.1314 11.3333H16.2004V3.01022ZM24.3004 31.1668H2.69991V2.83337H13.5V12.0418C13.5 12.6321 13.6967 13.1338 14.0905 13.547C14.4844 13.96 14.9623 14.1668 15.5251 14.1668H24.3004V31.1668Z" fill="black"/>
<path d="M26.5785 10.0936L33.0847 7.5111L33.0845 7.51051L26.5785 10.0936ZM25.5661 8.41158L20.4985 13.2406L20.4995 13.2416L25.5661 8.41158ZM18.9847 1.50503L24.0523 -3.32398L24.0491 -3.32739L18.9847 1.50503ZM17.3817 0.442547L20.1872 -5.97065L20.1857 -5.97128L17.3817 0.442547ZM0.590622 0.619706L5.65679 5.45023L5.6586 5.44833L0.590622 0.619706ZM0.590622 33.3805L-4.476 38.2105L-4.47464 38.2119L0.590622 33.3805ZM26.4094 33.3805L31.4755 38.211L31.4787 38.2076L26.4094 33.3805ZM27 12.0416L20 12.039V12.0416H27ZM16.2004 3.01022L18.5828 -3.57186C16.4374 -4.34843 14.0481 -4.03065 12.1802 -2.72028C10.3124 -1.40992 9.20035 0.72856 9.20035 3.01022L16.2004 3.01022ZM17.0651 3.49712L22.1326 -1.33198L22.1273 -1.33752L17.0651 3.49712ZM23.6677 10.4258L28.7426 5.60442L28.7352 5.59666L23.6677 10.4258ZM24.1314 11.3333V18.3333C26.376 18.3333 28.4844 17.257 29.8009 15.439C31.1174 13.6211 31.4823 11.2821 30.7821 9.14957L24.1314 11.3333ZM16.2004 11.3333H9.20035C9.20035 15.1993 12.3344 18.3333 16.2004 18.3333V11.3333ZM24.3004 31.1668V38.1668C28.1664 38.1668 31.3004 35.0328 31.3004 31.1668H24.3004ZM2.69991 31.1668H-4.30009C-4.30009 35.0328 -1.16608 38.1668 2.69991 38.1668L2.69991 31.1668ZM2.69991 2.83337V-4.16663C-1.16608 -4.16663 -4.30009 -1.03262 -4.30009 2.83337L2.69991 2.83337ZM13.5 2.83337H20.5C20.5 -1.03262 17.366 -4.16663 13.5 -4.16663L13.5 2.83337ZM14.0905 13.547L9.02294 18.3761L9.02521 18.3785L14.0905 13.547ZM24.3004 14.1668H31.3004C31.3004 10.3008 28.1664 7.16678 24.3004 7.16678V14.1668ZM33.0845 7.51051C32.5771 6.23261 31.8162 4.82298 30.6327 3.58153L20.4995 13.2416C20.2952 13.0273 20.1752 12.8483 20.117 12.7516C20.0594 12.6558 20.0506 12.6214 20.0725 12.6767L33.0845 7.51051ZM30.6337 3.58257L24.0523 -3.32398L13.9171 6.33404L20.4985 13.2406L30.6337 3.58257ZM24.0491 -3.32739C22.8594 -4.57417 21.4793 -5.4054 20.1872 -5.97065L14.5762 6.85574C14.6342 6.88113 14.3222 6.75853 13.9204 6.33745L24.0491 -3.32739ZM20.1857 -5.97128C18.8878 -6.53873 17.3024 -7 15.5259 -7V7C14.8738 7 14.526 6.83382 14.5776 6.85638L20.1857 -5.97128ZM15.5259 -7H2.02491V7H15.5259V-7ZM2.02491 -7C-0.482969 -7 -2.7835 -5.98674 -4.47736 -4.20892L5.6586 5.44833C5.26889 5.85736 4.72427 6.2769 4.02051 6.58092C3.31462 6.88586 2.62102 7 2.02491 7V-7ZM-4.47555 -4.21081C-6.15811 -2.44617 -7 -0.194413 -7 2.12489H7C7 2.62082 6.91443 3.22428 6.66401 3.86252C6.41188 4.50512 6.04896 5.03893 5.65679 5.45023L-4.47555 -4.21081ZM-7 2.12489V31.875H7V2.12489H-7ZM-7 31.875C-7 34.1943 -6.15823 36.4459 -4.476 38.2105L5.65724 28.5504C6.04917 28.9615 6.41202 29.4952 6.66411 30.1378C6.91449 30.776 7 31.3794 7 31.875H-7ZM-4.47464 38.2119C-2.7831 39.9853 -0.48476 41 2.02499 41V27C2.62204 27 3.31559 27.1145 4.02076 27.4191C4.72358 27.7227 5.26714 28.1414 5.65589 28.549L-4.47464 38.2119ZM2.02499 41H24.9755V27H2.02499V41ZM24.9755 41C27.4861 41 29.7844 39.9846 31.4755 38.211L21.3432 28.5499C21.7318 28.1424 22.2754 27.7234 22.9786 27.4195C23.6842 27.1146 24.3781 27 24.9755 27V41ZM31.4787 38.2076C33.1564 36.4458 34 34.1971 34 31.875H20C20 31.3786 20.0857 30.7749 20.3361 30.1369C20.5881 29.4948 20.9503 28.9625 21.34 28.5533L31.4787 38.2076ZM34 31.875V12.0416H20V31.875H34ZM34 12.0442C34.0006 10.3518 33.6015 8.813 33.0847 7.5111L20.0723 12.6761C20.1178 12.7907 19.9998 12.5508 20 12.039L34 12.0442ZM13.8179 9.5923C13.7618 9.57201 13.564 9.49781 13.2869 9.34174C13.0253 9.1944 12.5292 8.88286 12.0028 8.33175L22.1273 -1.33752C20.8421 -2.68326 19.3413 -3.29731 18.5828 -3.57186L13.8179 9.5923ZM11.9976 8.32621L18.6002 15.2549L28.7352 5.59666L22.1326 -1.33198L11.9976 8.32621ZM18.5928 15.2471C18.0749 14.7019 17.7968 14.2057 17.6771 13.9715C17.5467 13.7164 17.4899 13.545 17.4808 13.5171L30.7821 9.14957C30.5438 8.42383 29.9958 6.92354 28.7426 5.60443L18.5928 15.2471ZM24.1314 4.33333H16.2004V18.3333H24.1314V4.33333ZM23.2004 11.3333V3.01022H9.20035V11.3333H23.2004ZM24.3004 24.1668H2.69991V38.1668H24.3004V24.1668ZM9.69991 31.1668V2.83337H-4.30009V31.1668H9.69991ZM2.69991 9.83337H13.5V-4.16663H2.69991V9.83337ZM6.5 2.83337V12.0418H20.5V2.83337H6.5ZM6.5 12.0418C6.5 14.3608 7.34151 16.6116 9.02295 18.3761L19.158 8.7179C19.5494 9.12868 19.9121 9.66215 20.1642 10.3047C20.4145 10.943 20.5 11.5463 20.5 12.0418H6.5ZM9.02521 18.3785C10.7159 20.151 13.0136 21.1668 15.5251 21.1668V7.16678C16.122 7.16678 16.8159 7.28123 17.5216 7.58622C18.2248 7.89014 18.7679 8.30893 19.1557 8.71553L9.02521 18.3785ZM15.5251 21.1668H24.3004V7.16678H15.5251V21.1668ZM17.3004 14.1668V31.1668H31.3004V14.1668H17.3004Z" fill="black" mask="url(#path-1-inside-1)"/>
</svg>
